<svg xmlns="http://www.w3.org/2000/svg" viewBox="0 0 1200 750" width="1200" height="750" role="img" aria-label="形象官網首頁畫面示意圖">
  <defs>
    <linearGradient id="glow" x1="0" y1="0" x2="0" y2="1">
      <stop offset="0%" stop-color="#ff6b4a" stop-opacity="0.22" />
      <stop offset="100%" stop-color="#ff6b4a" stop-opacity="0" />
    </linearGradient>
  </defs>

  <rect width="1200" height="750" fill="#0f1115" />

  <!-- 瀏覽器視窗 -->
  <rect x="60" y="52" width="1080" height="646" rx="16" fill="#121419" stroke="#24272e" />
  <rect x="60" y="52" width="1080" height="52" rx="16" fill="#171a20" />
  <rect x="60" y="88" width="1080" height="16" fill="#171a20" />
  <line x1="60" y1="104" x2="1140" y2="104" stroke="#24272e" />
  <circle cx="92" cy="78" r="6" fill="#3a3f48" />
  <circle cx="114" cy="78" r="6" fill="#3a3f48" />
  <circle cx="136" cy="78" r="6" fill="#3a3f48" />
  <rect x="170" y="68" width="300" height="20" rx="10" fill="#24272e" />

  <!-- 站台導覽列 -->
  <rect x="100" y="132" width="118" height="14" rx="7" fill="#f5f6f8" opacity="0.9" />
  <rect x="760" y="134" width="60" height="10" rx="5" fill="#3a3f48" />
  <rect x="844" y="134" width="60" height="10" rx="5" fill="#3a3f48" />
  <rect x="928" y="134" width="60" height="10" rx="5" fill="#3a3f48" />
  <rect x="1010" y="124" width="90" height="30" rx="15" fill="#ff6b4a" />

  <!-- Hero 區 -->
  <rect x="100" y="180" width="1000" height="240" fill="url(#glow)" />
  <rect x="100" y="216" width="120" height="12" rx="6" fill="#ff6b4a" />
  <rect x="100" y="256" width="640" height="26" rx="13" fill="#f5f6f8" opacity="0.92" />
  <rect x="100" y="298" width="470" height="26" rx="13" fill="#f5f6f8" opacity="0.92" />
  <rect x="100" y="352" width="540" height="12" rx="6" fill="#3a3f48" />
  <rect x="100" y="378" width="400" height="12" rx="6" fill="#3a3f48" />
  <rect x="100" y="424" width="176" height="44" rx="22" fill="#ff6b4a" />
  <rect x="292" y="424" width="150" height="44" rx="22" fill="none" stroke="#3a3f48" stroke-width="2" />

  <!-- 三張服務卡 -->
  <g>
    <rect x="100" y="520" width="313" height="140" rx="12" fill="#171a20" stroke="#24272e" />
    <rect x="128" y="552" width="28" height="10" rx="5" fill="#ff6b4a" />
    <rect x="128" y="584" width="180" height="12" rx="6" fill="#9aa1ac" />
    <rect x="128" y="612" width="240" height="9" rx="4.5" fill="#3a3f48" />
    <rect x="128" y="630" width="200" height="9" rx="4.5" fill="#3a3f48" />
  </g>
  <g>
    <rect x="443" y="520" width="313" height="140" rx="12" fill="#171a20" stroke="#24272e" />
    <rect x="471" y="552" width="28" height="10" rx="5" fill="#ff6b4a" />
    <rect x="471" y="584" width="160" height="12" rx="6" fill="#9aa1ac" />
    <rect x="471" y="612" width="240" height="9" rx="4.5" fill="#3a3f48" />
    <rect x="471" y="630" width="180" height="9" rx="4.5" fill="#3a3f48" />
  </g>
  <g>
    <rect x="786" y="520" width="314" height="140" rx="12" fill="#171a20" stroke="#24272e" />
    <rect x="814" y="552" width="28" height="10" rx="5" fill="#ff6b4a" />
    <rect x="814" y="584" width="200" height="12" rx="6" fill="#9aa1ac" />
    <rect x="814" y="612" width="240" height="9" rx="4.5" fill="#3a3f48" />
    <rect x="814" y="630" width="210" height="9" rx="4.5" fill="#3a3f48" />
  </g>
</svg>
